# xmcd
#
# Track frame offsets:
# 150
# 7184
# 17454
# 36797
# 47518
# 63802
# 76438
# 89979
# 100308
# 118071
# 134637
# 150364
# 174228
# 193338
# 203285
# 215246
# 225487
# 244894
# 262917
# 275240
# 289579
# 305275
# 317217
# 338839
#
# Disc length: 4672 seconds
#
#
# Revision: 0
# Processed by: cddbd v1.5.1PL0 Copyright (c) Steve Scherf et al.
# Submitted via: FreeRIP 2.92 
#
DISCID=57123e18
DTITLE=Children's Chorus of Washington - CCW 1999-2000 Season
DYEAR=2000
DGENRE=Chorus
TTITLE0=Ding Dong! Merrily On High
TTITLE1=Still, Still, Still
TTITLE2=O Lovely Peace from "Judas Maccabeus"
TTITLE3=Hanerot Halalu
TTITLE4=Eliyahu Hanavi
TTITLE5=Jesu, Joy of Man's Desiring
TTITLE6=Tomorrow Shall Be My Dancing Day
TTITLE7=O Christmas Tree
TTITLE8=Mid-Winter
TTITLE9=Hallelujah Chorus from "Messiah"
TTITLE10=Sleigh Ride
TTITLE11=Psalm 150
TTITLE12=Stabat Mater: I. Stabat mater dolorosa
TTITLE13=IV. Quae moerebat et dolebat
TTITLE14=VIII. Fac, ut ardeat cor meum
TTITLE15=IX. Inflammatus et accencus
TTITLE16=XII. Quando corpus/Amen
TTITLE17=A Simple Song from "Mass"
TTITLE18=The Nursery Rhyme Cantata: Fairest Lady
TTITLE19=The Nursery Rhyme Cantata: She Shall Have Music
TTITLE20=Camino Caminante
TTITLE21=Total Praise
TTITLE22=The Circle of Our Lives
TTITLE23=Niska Banja
EXTD=
EXTT0=
EXTT1=
EXTT2=
EXTT3=
EXTT4=
EXTT5=
EXTT6=
EXTT7=
EXTT8=
EXTT9=
EXTT10=
EXTT11=
EXTT12=
EXTT13=
EXTT14=
EXTT15=
EXTT16=
EXTT17=
EXTT18=
EXTT19=
EXTT20=
EXTT21=
EXTT22=
EXTT23=
PLAYORDER=
